<svg width="81" height="81" viewBox="0 0 81 81" fill="none" xmlns="http://www.w3.org/2000/svg">
<path d="M33.0859 22.1708C34.504 22.1381 35.922 22.118 37.3403 22.1003C37.7434 22.0908 38.1465 22.0814 38.5618 22.0716C38.9484 22.068 39.3351 22.0643 39.7334 22.0606C40.2681 22.0517 40.2681 22.0517 40.8136 22.0427C41.7357 22.1708 41.7357 22.1708 42.3473 22.6097C43.0653 23.5677 43.0136 24.2386 43.0266 25.4294C43.0377 26.0843 43.0377 26.0843 43.0491 26.7525C43.0515 27.2238 43.0539 27.6951 43.0564 28.1807C43.0665 28.9045 43.0665 28.9045 43.0769 29.643C43.0947 30.9246 43.1059 32.2062 43.1158 33.4879C43.127 34.7963 43.1445 36.1046 43.1614 37.4129C43.1938 39.9791 43.2191 42.5452 43.24 45.1115C44.0954 43.1847 44.9493 41.2573 45.8021 39.3293C45.9926 38.8986 45.9926 38.8986 46.187 38.4593C48.102 34.1271 49.9787 29.7814 51.7999 25.4088C51.9566 25.034 52.1133 24.6592 52.2747 24.273C52.4779 23.7836 52.4779 23.7836 52.6851 23.2842C53.018 22.5469 53.018 22.5469 53.3941 22.1708C53.954 22.1382 54.5154 22.1305 55.0762 22.1341C55.4143 22.1353 55.7525 22.1365 56.1009 22.1377C56.6342 22.1425 56.6342 22.1425 57.1784 22.1473C57.714 22.1498 57.714 22.1498 58.2604 22.1524C59.1455 22.1569 60.0306 22.1631 60.9157 22.1708C60.9251 22.6405 60.9345 23.1103 60.9442 23.5943C60.9801 25.3662 61.0177 27.1382 61.0557 28.9101C61.0718 29.6715 61.0875 30.433 61.1027 31.1944C61.1934 35.7174 61.3342 40.2231 61.6678 44.7354C62.86 42.0414 64.0444 39.344 65.2234 36.6442C65.6249 35.7257 66.0293 34.8086 66.435 33.8919C67.0175 32.5748 67.5936 31.2551 68.1684 29.9347C68.3513 29.5249 68.5342 29.1151 68.7227 28.6928C68.8884 28.3089 69.054 27.9251 69.2247 27.5296C69.3725 27.1931 69.5204 26.8565 69.6727 26.5097C69.9846 25.4027 69.927 24.7606 69.5655 23.6751C69.1931 23.4889 69.1931 23.4889 68.8133 23.299C68.9374 22.9267 69.0615 22.5544 69.1894 22.1708C70.49 22.1599 71.7906 22.1532 73.0912 22.1473C73.4616 22.1441 73.8319 22.141 74.2135 22.1377C74.7444 22.1359 74.7444 22.1359 75.2859 22.1341C75.7763 22.1311 75.7763 22.1311 76.2766 22.1281C77.087 22.1708 77.087 22.1708 77.8392 22.5469C77.6846 25.2011 76.5586 27.3232 75.4182 29.6923C75.2026 30.147 74.9876 30.602 74.7729 31.0571C74.4243 31.7959 74.0755 32.5345 73.7254 33.2726C72.3079 36.2624 70.9227 39.2671 69.5375 42.272C69.0977 43.226 68.6574 44.1798 68.2171 45.1336C66.2593 49.3771 64.3191 53.6279 62.42 57.8981C61.4483 57.9185 60.4771 57.9334 59.5054 57.9452C59.0938 57.9546 59.0938 57.9546 58.6739 57.9643C55.9483 57.989 55.9483 57.989 54.8984 57.146C54.4978 55.9563 54.4652 54.8207 54.4451 53.5721C54.4339 52.9511 54.4339 52.9511 54.4224 52.3176C54.4161 51.8729 54.4098 51.4282 54.4034 50.9701C54.3955 50.5131 54.3877 50.0561 54.3797 49.5853C54.3551 48.1254 54.3329 46.6655 54.3108 45.2055C54.2946 44.2159 54.2782 43.2262 54.2616 42.2366C54.2213 39.8102 54.183 37.3838 54.1463 34.9574C54.0468 35.1893 53.9473 35.4213 53.8448 35.6603C52.8028 38.0892 51.7592 40.5175 50.7147 42.9454C50.3258 43.8498 49.9374 44.7544 49.5493 45.6591C48.9893 46.9647 48.4278 48.2696 47.8661 49.5745C47.6948 49.9746 47.5235 50.3747 47.3471 50.787C46.3063 53.1999 45.1959 55.5621 43.9922 57.8981C43.0909 57.9288 42.1907 57.951 41.2891 57.9687C41.0358 57.9781 40.7825 57.9876 40.5215 57.9973C38.8546 58.0217 37.7301 57.9013 36.4706 56.7699C36.0937 55.1151 36.0187 53.4712 35.9543 51.7789C35.9438 51.515 35.9334 51.2512 35.9226 50.9793C35.9002 50.4099 35.8785 49.8405 35.8573 49.271C35.8238 48.368 35.7885 47.4651 35.7527 46.5622C35.677 44.6449 35.6036 42.7275 35.5304 40.8101C35.4456 38.5884 35.3599 36.3666 35.2719 34.145C35.2372 33.2587 35.2042 32.3723 35.1713 31.4859C35.1498 30.9383 35.1283 30.3906 35.1066 29.843C35.0885 29.3679 35.0705 28.8929 35.0519 28.4034C34.966 27.0552 34.8456 25.7544 34.5902 24.4272C33.8469 23.7675 33.8469 23.7675 33.0859 23.299C33.0859 22.9267 33.0859 22.5544 33.0859 22.1708Z" fill="#DE3819"/>
<path d="M3 22.1708C4.41803 22.1272 5.83589 22.1004 7.25438 22.0768C7.65748 22.0642 8.06058 22.0515 8.47589 22.0386C8.86251 22.0337 9.24913 22.0289 9.64746 22.0239C10.0039 22.016 10.3604 22.0081 10.7277 22C11.6498 22.1708 11.6498 22.1708 12.2635 22.7956C12.91 23.9007 12.9143 24.6062 12.9061 25.8827C12.906 26.3268 12.9059 26.7709 12.9058 27.2285C12.9 27.7061 12.8942 28.1837 12.8882 28.6757C12.8866 29.1661 12.885 29.6565 12.8834 30.1617C12.8791 31.4626 12.868 32.7633 12.8555 34.0642C12.8439 35.3927 12.8388 36.7212 12.8331 38.0498C12.821 40.6545 12.8018 43.2591 12.778 45.8637C12.8822 45.6223 12.9864 45.3809 13.0937 45.1323C14.0827 42.8417 15.0728 40.5516 16.064 38.262C16.5733 37.0853 17.0823 35.9085 17.5904 34.7312C18.1764 33.3733 18.7642 32.0161 19.352 30.659C19.5315 30.2424 19.711 29.8258 19.896 29.3966C20.9594 26.9457 22.0918 24.5496 23.3082 22.1708C25.6662 22.1708 28.0242 22.1708 30.4537 22.1708C30.8766 25.9775 30.8766 25.9775 30.901 27.6599C30.9073 28.0349 30.9136 28.4099 30.92 28.7963C30.9251 29.1889 30.9302 29.5816 30.9355 29.9861C30.9497 30.8304 30.9639 31.6746 30.9781 32.5188C30.9984 33.8402 31.018 35.1616 31.0374 36.483C31.0568 37.7648 31.0783 39.0465 31.1 40.3283C31.1051 40.727 31.1103 41.1258 31.1155 41.5366C31.1218 41.9021 31.1281 42.2676 31.1346 42.6442C31.1393 42.9672 31.144 43.2902 31.1488 43.623C31.1256 44.3607 31.1256 44.3607 31.5819 44.7354C32.6722 42.2138 33.7579 39.6902 34.8376 37.164C35.3392 35.991 35.8423 34.8188 36.3491 33.6481C36.9316 32.3022 37.5072 30.9533 38.0824 29.6042C38.2654 29.1842 38.4483 28.7642 38.6367 28.3315C38.8024 27.94 38.9681 27.5486 39.1388 27.1454C39.2866 26.8013 39.4344 26.4572 39.5867 26.1027C39.8786 25.1004 39.8883 24.6286 39.4795 23.6751C39.1072 23.4889 39.1072 23.4889 38.7274 23.299C38.7274 22.9267 38.7274 22.5544 38.7274 22.1708C40.0906 22.149 41.4538 22.1356 42.8172 22.1238C43.2055 22.1175 43.5938 22.1112 43.9939 22.1047C44.3648 22.1022 44.7356 22.0998 45.1177 22.0973C45.6318 22.0914 45.6318 22.0914 46.1562 22.0854C47.0011 22.1708 47.0011 22.1708 47.7532 22.9229C47.6408 24.8285 46.8852 26.4021 46.0579 28.0896C45.9235 28.37 45.789 28.6505 45.6505 28.9394C45.3608 29.5431 45.0699 30.1461 44.7778 30.7486C44.0008 32.352 43.233 33.9596 42.4646 35.5671C42.3083 35.8937 42.1519 36.2203 41.9909 36.5568C40.2352 40.2335 38.5579 43.9449 36.8938 47.6637C35.3405 51.1232 33.6758 54.5175 31.958 57.8981C31.0491 57.9138 30.1403 57.9295 29.2314 57.9451C28.9506 57.952 28.6698 57.9588 28.3805 57.9659C27.0045 57.9774 25.9541 57.9542 24.8125 57.146C24.3195 56.16 24.3759 55.4103 24.3592 54.3061C24.3479 53.6512 24.3479 53.6512 24.3365 52.983C24.3302 52.5097 24.3239 52.0365 24.3174 51.5489C24.3096 51.0658 24.3018 50.5827 24.2937 50.085C24.273 48.8003 24.2544 47.5155 24.2363 46.2307C24.2174 44.9199 24.1964 43.6091 24.1757 42.2983C24.1352 39.726 24.0971 37.1537 24.0603 34.5813C23.8945 34.9696 23.8945 34.9696 23.7253 35.3657C22.6803 37.8115 21.6347 40.257 20.5883 42.7022C20.0505 43.9591 19.5129 45.2162 18.9759 46.4735C18.4571 47.6881 17.9376 48.9024 17.4177 50.1166C17.1241 50.8025 16.8313 51.4888 16.5384 52.175C16.3578 52.5965 16.1772 53.018 15.9911 53.4522C15.7544 54.0059 15.7544 54.0059 15.5128 54.5708C15.0095 55.6976 14.4658 56.7983 13.9062 57.8981C12.9346 57.9185 11.9634 57.9334 10.9916 57.9451C10.7173 57.9515 10.4429 57.9578 10.1602 57.9642C7.55052 57.988 7.55052 57.988 6.3847 57.146C5.85013 56.0768 5.91548 55.1297 5.86833 53.9349C5.85787 53.6822 5.84742 53.4295 5.83664 53.1692C5.80229 52.3299 5.77034 51.4906 5.73831 50.6513C5.71463 50.0654 5.69077 49.4796 5.66674 48.8937C5.60361 47.3456 5.54239 45.7975 5.48171 44.2494C5.38501 41.7863 5.28607 39.3234 5.18594 36.8605C5.15158 36.0064 5.11841 35.1522 5.08537 34.298C5.04428 33.25 4.9991 32.2024 4.94934 31.1548C4.90398 30.1926 4.86493 29.2301 4.83274 28.2674C4.80142 27.6146 4.80142 27.6146 4.76947 26.9486C4.75446 26.5691 4.73945 26.1895 4.72398 25.7985C4.45118 24.5626 3.90729 24.1483 3 23.299C3 22.9267 3 22.5544 3 22.1708Z" fill="#004C92"/>
</svg>
